<?xml version="1.0" encoding="UTF-8" standalone="no"?>
<!DOCTYPE svg PUBLIC "-//W3C//DTD SVG 1.1//EN"
 "http://www.w3.org/Graphics/SVG/1.1/DTD/svg11.dtd">
<!-- Generated by graphviz version 2.38.0 (20140413.2041)
 -->
<!-- Title: G Pages: 1 -->
<svg width="728pt" height="2309pt"
 viewBox="0.00 0.00 727.57 2308.59" xmlns="http://www.w3.org/2000/svg" xmlns:xlink="http://www.w3.org/1999/xlink">
<g id="graph0" class="graph" transform="scale(1 1) rotate(0) translate(4 2304.59)">
<title>G</title>
<polygon fill="white" stroke="none" points="-4,4 -4,-2304.59 723.57,-2304.59 723.57,4 -4,4"/>
<g id="clust1" class="cluster"><title>cluster_Global</title>
<path fill="none" stroke="gray" d="M262.279,-276.588C262.279,-276.588 699.57,-276.588 699.57,-276.588 705.57,-276.588 711.57,-282.588 711.57,-288.588 711.57,-288.588 711.57,-2280.59 711.57,-2280.59 711.57,-2286.59 705.57,-2292.59 699.57,-2292.59 699.57,-2292.59 262.279,-2292.59 262.279,-2292.59 256.279,-2292.59 250.279,-2286.59 250.279,-2280.59 250.279,-2280.59 250.279,-288.588 250.279,-288.588 250.279,-282.588 256.279,-276.588 262.279,-276.588"/>
<text text-anchor="middle" x="480.924" y="-2279.79" font-family="Times New Roman,serif" font-size="11.00" fill="gray">Global</text>
</g>
<!-- \\CPAC_Storage_Model_MLA -->
<g id="node1" class="node"><title>\\CPAC_Storage_Model_MLA</title>
<polygon fill="none" stroke="black" points="676.57,-2048.59 511.57,-2048.59 511.57,-2012.59 676.57,-2012.59 676.57,-2048.59"/>
<text text-anchor="middle" x="594.07" y="-2027.79" font-family="Courier,monospace" font-size="11.00">CPAC_Storage_Model_MLA</text>
</g>
<!-- \\CPAC_Storage_Model -->
<g id="node39" class="node"><title>\\CPAC_Storage_Model</title>
<ellipse fill="none" stroke="black" cx="313.779" cy="-250.588" rx="98.5829" ry="18"/>
<text text-anchor="middle" x="313.779" y="-246.888" font-family="Times New Roman,serif" font-size="14.00" fill="gray">\CPAC_Storage_Model</text>
</g>
<!-- \\CPAC_Storage_Model_MLA&#45;&gt;\\CPAC_Storage_Model -->
<g id="edge1" class="edge"><title>\\CPAC_Storage_Model_MLA&#45;&gt;\\CPAC_Storage_Model</title>
<path fill="none" stroke="black" d="M511.525,-2022.77C501.147,-2018.47 491.686,-2012.31 484.57,-2003.59 362.894,-1854.42 535.924,-420.371 412.57,-272.588 410.583,-270.208 408.4,-268.053 406.057,-266.103"/>
<polygon fill="none" stroke="black" points="407.749,-263.019 397.527,-260.233 403.781,-268.786 407.749,-263.019"/>
</g>
<!-- \\MLA_Ajax -->
<g id="node2" class="node"><title>\\MLA_Ajax</title>
<polygon fill="none" stroke="black" points="629.57,-2210.59 558.57,-2210.59 558.57,-2174.59 629.57,-2174.59 629.57,-2210.59"/>
<text text-anchor="middle" x="594.07" y="-2189.79" font-family="Courier,monospace" font-size="11.00">MLA_Ajax</text>
</g>
<!-- \\MLACoreOptions -->
<g id="node3" class="node"><title>\\MLACoreOptions</title>
<polygon fill="none" stroke="black" points="649.57,-2156.59 538.57,-2156.59 538.57,-2120.59 649.57,-2120.59 649.57,-2156.59"/>
<text text-anchor="middle" x="594.07" y="-2135.79" font-family="Courier,monospace" font-size="11.00">MLACoreOptions</text>
</g>
<!-- \\MLACore -->
<g id="node4" class="node"><title>\\MLACore</title>
<polygon fill="none" stroke="black" points="626.07,-2102.59 562.07,-2102.59 562.07,-2066.59 626.07,-2066.59 626.07,-2102.59"/>
<text text-anchor="middle" x="594.07" y="-2081.79" font-family="Courier,monospace" font-size="11.00">MLACore</text>
</g>
<!-- \\MLA_Checklist_Walker -->
<g id="node5" class="node"><title>\\MLA_Checklist_Walker</title>
<polygon fill="none" stroke="black" points="670.07,-1670.59 518.07,-1670.59 518.07,-1634.59 670.07,-1634.59 670.07,-1670.59"/>
<text text-anchor="middle" x="594.07" y="-1649.79" font-family="Courier,monospace" font-size="11.00">MLA_Checklist_Walker</text>
</g>
<!-- \\Walker_Category -->
<g id="node40" class="node"><title>\\Walker_Category</title>
<ellipse fill="none" stroke="black" cx="313.779" cy="-196.588" rx="77.1866" ry="18"/>
<text text-anchor="middle" x="313.779" y="-192.888" font-family="Times New Roman,serif" font-size="14.00" fill="gray">\Walker_Category</text>
</g>
<!-- \\MLA_Checklist_Walker&#45;&gt;\\Walker_Category -->
<g id="edge2" class="edge"><title>\\MLA_Checklist_Walker&#45;&gt;\\Walker_Category</title>
<path fill="none" stroke="black" d="M517.876,-1647.06C505.065,-1642.75 493.148,-1636 484.57,-1625.59 286.207,-1384.81 607.848,-466.877 412.57,-223.588 407.454,-217.214 400.979,-212.263 393.806,-208.43"/>
<polygon fill="none" stroke="black" points="394.949,-205.105 384.397,-204.149 392.049,-211.476 394.949,-205.105"/>
</g>
<!-- \\MLAPDF -->
<g id="node6" class="node"><title>\\MLAPDF</title>
<polygon fill="none" stroke="black" points="622.57,-1994.59 565.57,-1994.59 565.57,-1958.59 622.57,-1958.59 622.57,-1994.59"/>
<text text-anchor="middle" x="594.07" y="-1973.79" font-family="Courier,monospace" font-size="11.00">MLAPDF</text>
</g>
<!-- \\MLAQuery -->
<g id="node7" class="node"><title>\\MLAQuery</title>
<polygon fill="none" stroke="black" points="629.57,-1940.59 558.57,-1940.59 558.57,-1904.59 629.57,-1904.59 629.57,-1940.59"/>
<text text-anchor="middle" x="594.07" y="-1919.79" font-family="Courier,monospace" font-size="11.00">MLAQuery</text>
</g>
<!-- \\MLAReferences -->
<g id="node8" class="node"><title>\\MLAReferences</title>
<polygon fill="none" stroke="black" points="646.07,-1886.59 542.07,-1886.59 542.07,-1850.59 646.07,-1850.59 646.07,-1886.59"/>
<text text-anchor="middle" x="594.07" y="-1865.79" font-family="Courier,monospace" font-size="11.00">MLAReferences</text>
</g>
<!-- \\MLAData_Source -->
<g id="node9" class="node"><title>\\MLAData_Source</title>
<polygon fill="none" stroke="black" points="649.57,-1832.59 538.57,-1832.59 538.57,-1796.59 649.57,-1796.59 649.57,-1832.59"/>
<text text-anchor="middle" x="594.07" y="-1811.79" font-family="Courier,monospace" font-size="11.00">MLAData_Source</text>
</g>
<!-- \\MLAData -->
<g id="node10" class="node"><title>\\MLAData</title>
<polygon fill="none" stroke="black" points="626.07,-1778.59 562.07,-1778.59 562.07,-1742.59 626.07,-1742.59 626.07,-1778.59"/>
<text text-anchor="middle" x="594.07" y="-1757.79" font-family="Courier,monospace" font-size="11.00">MLAData</text>
</g>
<!-- \\MLAEdit -->
<g id="node11" class="node"><title>\\MLAEdit</title>
<polygon fill="none" stroke="black" points="626.07,-1724.59 562.07,-1724.59 562.07,-1688.59 626.07,-1688.59 626.07,-1724.59"/>
<text text-anchor="middle" x="594.07" y="-1703.79" font-family="Courier,monospace" font-size="11.00">MLAEdit</text>
</g>
<!-- \\MLA_Example_List_Table -->
<g id="node12" class="node"><title>\\MLA_Example_List_Table</title>
<polygon fill="none" stroke="black" points="676.57,-1616.59 511.57,-1616.59 511.57,-1580.59 676.57,-1580.59 676.57,-1616.59"/>
<text text-anchor="middle" x="594.07" y="-1595.79" font-family="Courier,monospace" font-size="11.00">MLA_Example_List_Table</text>
</g>
<!-- \\WP_List_Table -->
<g id="node41" class="node"><title>\\WP_List_Table</title>
<ellipse fill="none" stroke="black" cx="71.4937" cy="-150.588" rx="71.4873" ry="18"/>
<text text-anchor="middle" x="71.4937" y="-146.888" font-family="Times New Roman,serif" font-size="14.00" fill="gray">\WP_List_Table</text>
</g>
<!-- \\MLA_Example_List_Table&#45;&gt;\\WP_List_Table -->
<g id="edge3" class="edge"><title>\\MLA_Example_List_Table&#45;&gt;\\WP_List_Table</title>
<path fill="none" stroke="black" d="M511.333,-1590.6C501.049,-1586.31 491.667,-1580.2 484.57,-1571.59 385.388,-1451.2 522.618,-280.133 412.57,-169.588 376.968,-133.826 237.682,-137.303 148.786,-143.594"/>
<polygon fill="none" stroke="black" points="148.458,-140.109 138.741,-144.332 148.971,-147.09 148.458,-140.109"/>
</g>
<!-- \\MLA_Upgrader_Skin -->
<g id="node13" class="node"><title>\\MLA_Upgrader_Skin</title>
<polygon fill="none" stroke="black" points="659.57,-1130.59 528.57,-1130.59 528.57,-1094.59 659.57,-1094.59 659.57,-1130.59"/>
<text text-anchor="middle" x="594.07" y="-1109.79" font-family="Courier,monospace" font-size="11.00">MLA_Upgrader_Skin</text>
</g>
<!-- \\WP_Upgrader_Skin -->
<g id="node42" class="node"><title>\\WP_Upgrader_Skin</title>
<ellipse fill="none" stroke="black" cx="313.779" cy="-104.588" rx="87.1846" ry="18"/>
<text text-anchor="middle" x="313.779" y="-100.888" font-family="Times New Roman,serif" font-size="14.00" fill="gray">\WP_Upgrader_Skin</text>
</g>
<!-- \\MLA_Upgrader_Skin&#45;&gt;\\WP_Upgrader_Skin -->
<g id="edge4" class="edge"><title>\\MLA_Upgrader_Skin&#45;&gt;\\WP_Upgrader_Skin</title>
<path fill="none" stroke="black" d="M528.458,-1109.83C511.856,-1105.91 495.591,-1098.64 484.57,-1085.59 348.109,-924.007 543.098,-302.999 412.57,-136.588 407.181,-129.718 400.286,-124.305 392.656,-120.043"/>
<polygon fill="none" stroke="black" points="393.931,-116.772 383.407,-115.55 390.872,-123.068 393.931,-116.772"/>
</g>
<!-- \\MLAFileDownloader -->
<g id="node14" class="node"><title>\\MLAFileDownloader</title>
<polygon fill="none" stroke="black" points="659.57,-1562.59 528.57,-1562.59 528.57,-1526.59 659.57,-1526.59 659.57,-1562.59"/>
<text text-anchor="middle" x="594.07" y="-1541.79" font-family="Courier,monospace" font-size="11.00">MLAFileDownloader</text>
</g>
<!-- \\MLAImageProcessor -->
<g id="node15" class="node"><title>\\MLAImageProcessor</title>
<polygon fill="none" stroke="black" points="659.57,-1508.59 528.57,-1508.59 528.57,-1472.59 659.57,-1472.59 659.57,-1508.59"/>
<text text-anchor="middle" x="594.07" y="-1487.79" font-family="Courier,monospace" font-size="11.00">MLAImageProcessor</text>
</g>
<!-- \\MLAMutex -->
<g id="node16" class="node"><title>\\MLAMutex</title>
<polygon fill="none" stroke="black" points="629.57,-1454.59 558.57,-1454.59 558.57,-1418.59 629.57,-1418.59 629.57,-1454.59"/>
<text text-anchor="middle" x="594.07" y="-1433.79" font-family="Courier,monospace" font-size="11.00">MLAMutex</text>
</g>
<!-- \\MLA_List_Table -->
<g id="node17" class="node"><title>\\MLA_List_Table</title>
<polygon fill="none" stroke="black" points="369.279,-1293.59 258.279,-1293.59 258.279,-1257.59 369.279,-1257.59 369.279,-1293.59"/>
<text text-anchor="middle" x="313.779" y="-1272.79" font-family="Courier,monospace" font-size="11.00">MLA_List_Table</text>
</g>
<!-- \\MLA_List_Table&#45;&gt;\\WP_List_Table -->
<g id="edge5" class="edge"><title>\\MLA_List_Table&#45;&gt;\\WP_List_Table</title>
<path fill="none" stroke="black" d="M308.907,-1257.46C281.144,-1127.48 112.486,-337.83 78.4699,-178.568"/>
<polygon fill="none" stroke="black" points="81.8533,-177.653 76.3417,-168.604 75.0077,-179.115 81.8533,-177.653"/>
</g>
<!-- \\MLA -->
<g id="node18" class="node"><title>\\MLA</title>
<polygon fill="none" stroke="black" points="621.07,-1400.59 567.07,-1400.59 567.07,-1364.59 621.07,-1364.59 621.07,-1400.59"/>
<text text-anchor="middle" x="594.07" y="-1379.79" font-family="Courier,monospace" font-size="11.00">MLA</text>
</g>
<!-- \\MLAModal_Ajax -->
<g id="node19" class="node"><title>\\MLAModal_Ajax</title>
<polygon fill="none" stroke="black" points="646.07,-1346.59 542.07,-1346.59 542.07,-1310.59 646.07,-1310.59 646.07,-1346.59"/>
<text text-anchor="middle" x="594.07" y="-1325.79" font-family="Courier,monospace" font-size="11.00">MLAModal_Ajax</text>
</g>
<!-- \\MLAModal -->
<g id="node20" class="node"><title>\\MLAModal</title>
<polygon fill="none" stroke="black" points="629.57,-1292.59 558.57,-1292.59 558.57,-1256.59 629.57,-1256.59 629.57,-1292.59"/>
<text text-anchor="middle" x="594.07" y="-1271.79" font-family="Courier,monospace" font-size="11.00">MLAModal</text>
</g>
<!-- \\MLAMime -->
<g id="node21" class="node"><title>\\MLAMime</title>
<polygon fill="none" stroke="black" points="626.07,-1238.59 562.07,-1238.59 562.07,-1202.59 626.07,-1202.59 626.07,-1238.59"/>
<text text-anchor="middle" x="594.07" y="-1217.79" font-family="Courier,monospace" font-size="11.00">MLAMime</text>
</g>
<!-- \\MLAObjects -->
<g id="node22" class="node"><title>\\MLAObjects</title>
<polygon fill="none" stroke="black" points="636.07,-1184.59 552.07,-1184.59 552.07,-1148.59 636.07,-1148.59 636.07,-1184.59"/>
<text text-anchor="middle" x="594.07" y="-1163.79" font-family="Courier,monospace" font-size="11.00">MLAObjects</text>
</g>
<!-- \\MLATextWidget -->
<g id="node23" class="node"><title>\\MLATextWidget</title>
<polygon fill="none" stroke="black" points="646.07,-698.588 542.07,-698.588 542.07,-662.588 646.07,-662.588 646.07,-698.588"/>
<text text-anchor="middle" x="594.07" y="-677.788" font-family="Courier,monospace" font-size="11.00">MLATextWidget</text>
</g>
<!-- \\WP_Widget -->
<g id="node43" class="node"><title>\\WP_Widget</title>
<ellipse fill="none" stroke="black" cx="313.779" cy="-50.588" rx="58.4896" ry="18"/>
<text text-anchor="middle" x="313.779" y="-46.888" font-family="Times New Roman,serif" font-size="14.00" fill="gray">\WP_Widget</text>
</g>
<!-- \\MLATextWidget&#45;&gt;\\WP_Widget -->
<g id="edge6" class="edge"><title>\\MLATextWidget&#45;&gt;\\WP_Widget</title>
<path fill="none" stroke="black" d="M541.837,-679.928C521.166,-676.923 498.868,-669.707 484.57,-653.588 313.365,-460.588 581.301,-272.754 412.57,-77.588 404.253,-67.9683 392.849,-61.6271 380.761,-57.4802"/>
<polygon fill="none" stroke="black" points="381.547,-54.0632 370.966,-54.6043 379.575,-60.7797 381.547,-54.0632"/>
</g>
<!-- \\MLAOptions -->
<g id="node24" class="node"><title>\\MLAOptions</title>
<polygon fill="none" stroke="black" points="636.07,-1076.59 552.07,-1076.59 552.07,-1040.59 636.07,-1040.59 636.07,-1076.59"/>
<text text-anchor="middle" x="594.07" y="-1055.79" font-family="Courier,monospace" font-size="11.00">MLAOptions</text>
</g>
<!-- \\MLA_Polylang -->
<g id="node25" class="node"><title>\\MLA_Polylang</title>
<polygon fill="none" stroke="black" points="643.07,-1022.59 545.07,-1022.59 545.07,-986.588 643.07,-986.588 643.07,-1022.59"/>
<text text-anchor="middle" x="594.07" y="-1001.79" font-family="Courier,monospace" font-size="11.00">MLA_Polylang</text>
</g>
<!-- \\MLASettings -->
<g id="node26" class="node"><title>\\MLASettings</title>
<polygon fill="none" stroke="black" points="639.57,-968.588 548.57,-968.588 548.57,-932.588 639.57,-932.588 639.57,-968.588"/>
<text text-anchor="middle" x="594.07" y="-947.788" font-family="Courier,monospace" font-size="11.00">MLASettings</text>
</g>
<!-- \\MLAShortcode_Support -->
<g id="node27" class="node"><title>\\MLAShortcode_Support</title>
<polygon fill="none" stroke="black" points="670.07,-914.588 518.07,-914.588 518.07,-878.588 670.07,-878.588 670.07,-914.588"/>
<text text-anchor="middle" x="594.07" y="-893.788" font-family="Courier,monospace" font-size="11.00">MLAShortcode_Support</text>
</g>
<!-- \\MLAShortcodes -->
<g id="node28" class="node"><title>\\MLAShortcodes</title>
<polygon fill="none" stroke="black" points="646.07,-860.588 542.07,-860.588 542.07,-824.588 646.07,-824.588 646.07,-860.588"/>
<text text-anchor="middle" x="594.07" y="-839.788" font-family="Courier,monospace" font-size="11.00">MLAShortcodes</text>
</g>
<!-- \\MLATemplate_Support -->
<g id="node29" class="node"><title>\\MLATemplate_Support</title>
<polygon fill="none" stroke="black" points="666.57,-806.588 521.57,-806.588 521.57,-770.588 666.57,-770.588 666.57,-806.588"/>
<text text-anchor="middle" x="594.07" y="-785.788" font-family="Courier,monospace" font-size="11.00">MLATemplate_Support</text>
</g>
<!-- \\MLA_Thumbnail -->
<g id="node30" class="node"><title>\\MLA_Thumbnail</title>
<polygon fill="none" stroke="black" points="646.07,-752.588 542.07,-752.588 542.07,-716.588 646.07,-716.588 646.07,-752.588"/>
<text text-anchor="middle" x="594.07" y="-731.788" font-family="Courier,monospace" font-size="11.00">MLA_Thumbnail</text>
</g>
<!-- \\MLA_Upload_List_Table -->
<g id="node31" class="node"><title>\\MLA_Upload_List_Table</title>
<polygon fill="none" stroke="black" points="673.07,-644.588 515.07,-644.588 515.07,-608.588 673.07,-608.588 673.07,-644.588"/>
<text text-anchor="middle" x="594.07" y="-623.788" font-family="Courier,monospace" font-size="11.00">MLA_Upload_List_Table</text>
</g>
<!-- \\MLA_Upload_List_Table&#45;&gt;\\WP_List_Table -->
<g id="edge7" class="edge"><title>\\MLA_Upload_List_Table&#45;&gt;\\WP_List_Table</title>
<path fill="none" stroke="black" d="M514.886,-619.288C503.377,-615.017 492.685,-608.736 484.57,-599.588 313.365,-406.588 588.734,-212.072 412.57,-23.588 382.337,8.75885 357.347,-16.7632 314.779,-4.58795"/>
</g>
<!-- \\MLA_Upload_Optional_List_Table -->
<g id="node32" class="node"><title>\\MLA_Upload_Optional_List_Table</title>
<polygon fill="none" stroke="black" points="703.57,-590.588 484.57,-590.588 484.57,-554.588 703.57,-554.588 703.57,-590.588"/>
<text text-anchor="middle" x="594.07" y="-569.788" font-family="Courier,monospace" font-size="11.00">MLA_Upload_Optional_List_Table</text>
</g>
<!-- \\MLA_Upload_Optional_List_Table&#45;&gt;\\WP_List_Table -->
<g id="edge8" class="edge"><title>\\MLA_Upload_Optional_List_Table&#45;&gt;\\WP_List_Table</title>
<path fill="none" stroke="black" d="M494.455,-554.456C490.877,-551.851 487.554,-548.909 484.57,-545.588 328.045,-371.381 573.57,-193.667 412.57,-23.588 382.132,8.56605 357.347,-16.7632 314.779,-4.58795"/>
</g>
<!-- \\MLA_View_List_Table -->
<g id="node33" class="node"><title>\\MLA_View_List_Table</title>
<polygon fill="none" stroke="black" points="666.57,-482.588 521.57,-482.588 521.57,-446.588 666.57,-446.588 666.57,-482.588"/>
<text text-anchor="middle" x="594.07" y="-461.788" font-family="Courier,monospace" font-size="11.00">MLA_View_List_Table</text>
</g>
<!-- \\MLA_View_List_Table&#45;&gt;\\WP_List_Table -->
<g id="edge9" class="edge"><title>\\MLA_View_List_Table&#45;&gt;\\WP_List_Table</title>
<path fill="none" stroke="black" d="M521.366,-458.995C507.551,-454.795 494.356,-448.103 484.57,-437.588 357.328,-300.879 543.323,-156.944 412.57,-23.588 381.572,8.02657 357.347,-16.7632 314.779,-4.58795"/>
<path fill="none" stroke="black" d="M312.779,-4.58795C221.576,21.4973 130.375,-76.1527 91.729,-124.712"/>
<polygon fill="none" stroke="black" points="88.7399,-122.854 85.3476,-132.891 94.2587,-127.16 88.7399,-122.854"/>
</g>
<!-- \\MLA_WPML -->
<g id="node34" class="node"><title>\\MLA_WPML</title>
<polygon fill="none" stroke="black" points="629.57,-536.588 558.57,-536.588 558.57,-500.588 629.57,-500.588 629.57,-536.588"/>
<text text-anchor="middle" x="594.07" y="-515.788" font-family="Courier,monospace" font-size="11.00">MLA_WPML</text>
</g>
<!-- \\MLA_WPML_List_Table -->
<g id="node35" class="node"><title>\\MLA_WPML_List_Table</title>
<polygon fill="none" stroke="black" points="666.57,-2264.59 521.57,-2264.59 521.57,-2228.59 666.57,-2228.59 666.57,-2264.59"/>
<text text-anchor="middle" x="594.07" y="-2243.79" font-family="Courier,monospace" font-size="11.00">MLA_WPML_List_Table</text>
</g>
<!-- \\MLA_WPML_List_Table&#45;&gt;\\MLA_List_Table -->
<g id="edge10" class="edge"><title>\\MLA_WPML_List_Table&#45;&gt;\\MLA_List_Table</title>
<path fill="none" stroke="black" d="M521.412,-2240.95C507.594,-2236.75 494.387,-2230.07 484.57,-2219.59 355.357,-2081.56 321.779,-1445.62 315.842,-1303.72"/>
<polygon fill="none" stroke="black" points="319.336,-1303.5 315.433,-1293.65 312.342,-1303.78 319.336,-1303.5"/>
</g>
<!-- \\MLA_WPML_Table -->
<g id="node36" class="node"><title>\\MLA_WPML_Table</title>
<polygon fill="none" stroke="black" points="649.57,-428.588 538.57,-428.588 538.57,-392.588 649.57,-392.588 649.57,-428.588"/>
<text text-anchor="middle" x="594.07" y="-407.788" font-family="Courier,monospace" font-size="11.00">MLA_WPML_Table</text>
</g>
<!-- \\MLAUninstall -->
<g id="node37" class="node"><title>\\MLAUninstall</title>
<polygon fill="none" stroke="black" points="643.07,-374.588 545.07,-374.588 545.07,-338.588 643.07,-338.588 643.07,-374.588"/>
<text text-anchor="middle" x="594.07" y="-353.788" font-family="Courier,monospace" font-size="11.00">MLAUninstall</text>
</g>
<!-- \\MLATest -->
<g id="node38" class="node"><title>\\MLATest</title>
<polygon fill="none" stroke="black" points="626.07,-320.588 562.07,-320.588 562.07,-284.588 626.07,-284.588 626.07,-320.588"/>
<text text-anchor="middle" x="594.07" y="-299.788" font-family="Courier,monospace" font-size="11.00">MLATest</text>
</g>
</g>
</svg>
